<?xml version="1.0" encoding="UTF-8"?>
<svg xmlns="http://www.w3.org/2000/svg" viewBox="0 0 512 512" width="512" height="512">
  <defs>
    <style>
      .stroke { fill: none; stroke: #e31b23; stroke-linecap: round; stroke-linejoin: round; }
    </style>
  </defs>
  <g>
    <!-- base path -->
    <path class="stroke" d="M256 464
      C140 360, 56 296, 56 200
      C56 120, 120 96, 176 96
      C216 96, 240 116, 256 144
      C272 116, 296 96, 336 96
      C392 96, 456 120, 456 200
      C456 296, 372 360, 256 464" stroke-width="12"/>
    <!-- slight left/up wobble -->
    <path class="stroke" d="M256 464
      C140 360, 56 296, 56 200
      C56 120, 120 96, 176 96
      C216 96, 240 116, 256 144
      C272 116, 296 96, 336 96
      C392 96, 456 120, 456 200
      C456 296, 372 360, 256 464" stroke-width="8" transform="translate(-5,-4) rotate(-1 256 256)"/>
    <!-- slight right/down wobble -->
    <path class="stroke" d="M256 464
      C140 360, 56 296, 56 200
      C56 120, 120 96, 176 96
      C216 96, 240 116, 256 144
      C272 116, 296 96, 336 96
      C392 96, 456 120, 456 200
      C456 296, 372 360, 256 464" stroke-width="6" transform="translate(4,3) rotate(1 256 256)"/>
  </g>
</svg>
